<mxfile host="app.diagrams.net" modified="2024-02-26T20:56:56.567Z" agent="Mozilla/5.0 (Windows NT 10.0; Win64; x64) AppleWebKit/537.36 (KHTML, like Gecko) Chrome/122.0.0.0 Safari/537.36 Edg/122.0.0.0" etag="-ok6Qd4nkYGyMdapqTJl" version="23.1.7" type="github">
  <diagram name="Página-1" id="WsrWBZAXP-trHbtOgq2g">
    <mxGraphModel dx="788" dy="1695" grid="1" gridSize="10" guides="1" tooltips="1" connect="1" arrows="1" fold="1" page="1" pageScale="1" pageWidth="827" pageHeight="1169" math="0" shadow="0">
      <root>
        <mxCell id="0" />
        <mxCell id="1" parent="0" />
        <mxCell id="QugZ5WU5OdrCgATYYlf3-1" value="Musculação" style="rounded=1;arcSize=10;whiteSpace=wrap;html=1;align=center;" vertex="1" parent="1">
          <mxGeometry x="190" y="290" width="100" height="40" as="geometry" />
        </mxCell>
        <mxCell id="QugZ5WU5OdrCgATYYlf3-67" style="edgeStyle=none;rounded=0;orthogonalLoop=1;jettySize=auto;html=1;exitX=1;exitY=0.5;exitDx=0;exitDy=0;entryX=0;entryY=0.5;entryDx=0;entryDy=0;strokeColor=default;align=center;verticalAlign=middle;fontFamily=Helvetica;fontSize=11;fontColor=default;labelBackgroundColor=default;endArrow=none;endFill=0;" edge="1" parent="1" source="QugZ5WU5OdrCgATYYlf3-2" target="QugZ5WU5OdrCgATYYlf3-63">
          <mxGeometry relative="1" as="geometry" />
        </mxCell>
        <mxCell id="QugZ5WU5OdrCgATYYlf3-2" value="Cliente" style="rounded=1;arcSize=10;whiteSpace=wrap;html=1;align=center;" vertex="1" parent="1">
          <mxGeometry x="150" y="630" width="100" height="40" as="geometry" />
        </mxCell>
        <mxCell id="QugZ5WU5OdrCgATYYlf3-22" style="edgeStyle=none;rounded=0;orthogonalLoop=1;jettySize=auto;html=1;exitX=1;exitY=0.5;exitDx=0;exitDy=0;entryX=0;entryY=0.5;entryDx=0;entryDy=0;strokeColor=default;align=center;verticalAlign=middle;fontFamily=Helvetica;fontSize=11;fontColor=default;labelBackgroundColor=default;endArrow=none;endFill=0;" edge="1" parent="1" source="QugZ5WU5OdrCgATYYlf3-3" target="QugZ5WU5OdrCgATYYlf3-20">
          <mxGeometry relative="1" as="geometry" />
        </mxCell>
        <mxCell id="QugZ5WU5OdrCgATYYlf3-23" style="edgeStyle=none;rounded=0;orthogonalLoop=1;jettySize=auto;html=1;exitX=0.5;exitY=0;exitDx=0;exitDy=0;entryX=0;entryY=0.5;entryDx=0;entryDy=0;strokeColor=default;align=center;verticalAlign=middle;fontFamily=Helvetica;fontSize=11;fontColor=default;labelBackgroundColor=default;endArrow=none;endFill=0;" edge="1" parent="1" source="QugZ5WU5OdrCgATYYlf3-3" target="QugZ5WU5OdrCgATYYlf3-21">
          <mxGeometry relative="1" as="geometry" />
        </mxCell>
        <mxCell id="QugZ5WU5OdrCgATYYlf3-3" value="Professor" style="rounded=1;arcSize=10;whiteSpace=wrap;html=1;align=center;" vertex="1" parent="1">
          <mxGeometry x="190" y="70" width="100" height="40" as="geometry" />
        </mxCell>
        <mxCell id="QugZ5WU5OdrCgATYYlf3-19" style="edgeStyle=none;rounded=0;orthogonalLoop=1;jettySize=auto;html=1;exitX=1;exitY=0.5;exitDx=0;exitDy=0;entryX=0;entryY=1;entryDx=0;entryDy=0;strokeColor=default;align=center;verticalAlign=middle;fontFamily=Helvetica;fontSize=11;fontColor=default;labelBackgroundColor=default;endArrow=none;endFill=0;" edge="1" parent="1" source="QugZ5WU5OdrCgATYYlf3-4" target="QugZ5WU5OdrCgATYYlf3-3">
          <mxGeometry relative="1" as="geometry" />
        </mxCell>
        <mxCell id="QugZ5WU5OdrCgATYYlf3-4" value="nome" style="ellipse;whiteSpace=wrap;html=1;align=center;" vertex="1" parent="1">
          <mxGeometry x="20" y="80" width="100" height="40" as="geometry" />
        </mxCell>
        <mxCell id="QugZ5WU5OdrCgATYYlf3-12" style="rounded=0;orthogonalLoop=1;jettySize=auto;html=1;exitX=1;exitY=0.5;exitDx=0;exitDy=0;entryX=0;entryY=0.25;entryDx=0;entryDy=0;endArrow=none;endFill=0;" edge="1" parent="1" source="QugZ5WU5OdrCgATYYlf3-5" target="QugZ5WU5OdrCgATYYlf3-3">
          <mxGeometry relative="1" as="geometry" />
        </mxCell>
        <mxCell id="QugZ5WU5OdrCgATYYlf3-5" value="número" style="ellipse;whiteSpace=wrap;html=1;align=center;" vertex="1" parent="1">
          <mxGeometry x="20" y="-120" width="100" height="40" as="geometry" />
        </mxCell>
        <mxCell id="QugZ5WU5OdrCgATYYlf3-15" style="edgeStyle=none;rounded=0;orthogonalLoop=1;jettySize=auto;html=1;exitX=1;exitY=0.5;exitDx=0;exitDy=0;entryX=0;entryY=0.5;entryDx=0;entryDy=0;strokeColor=default;align=center;verticalAlign=middle;fontFamily=Helvetica;fontSize=11;fontColor=default;labelBackgroundColor=default;endArrow=none;endFill=0;" edge="1" parent="1" source="QugZ5WU5OdrCgATYYlf3-6" target="QugZ5WU5OdrCgATYYlf3-3">
          <mxGeometry relative="1" as="geometry" />
        </mxCell>
        <mxCell id="QugZ5WU5OdrCgATYYlf3-6" value="sexo" style="ellipse;whiteSpace=wrap;html=1;align=center;" vertex="1" parent="1">
          <mxGeometry x="20" y="-70" width="100" height="40" as="geometry" />
        </mxCell>
        <mxCell id="QugZ5WU5OdrCgATYYlf3-17" style="edgeStyle=none;rounded=0;orthogonalLoop=1;jettySize=auto;html=1;exitX=1;exitY=0.5;exitDx=0;exitDy=0;entryX=0;entryY=0.75;entryDx=0;entryDy=0;strokeColor=default;align=center;verticalAlign=middle;fontFamily=Helvetica;fontSize=11;fontColor=default;labelBackgroundColor=default;endArrow=none;endFill=0;" edge="1" parent="1" source="QugZ5WU5OdrCgATYYlf3-8" target="QugZ5WU5OdrCgATYYlf3-3">
          <mxGeometry relative="1" as="geometry" />
        </mxCell>
        <mxCell id="QugZ5WU5OdrCgATYYlf3-8" value="data nasc" style="ellipse;whiteSpace=wrap;html=1;align=center;" vertex="1" parent="1">
          <mxGeometry x="20" y="-20" width="100" height="40" as="geometry" />
        </mxCell>
        <mxCell id="QugZ5WU5OdrCgATYYlf3-18" style="edgeStyle=none;rounded=0;orthogonalLoop=1;jettySize=auto;html=1;exitX=1;exitY=0.5;exitDx=0;exitDy=0;entryX=0;entryY=0.75;entryDx=0;entryDy=0;strokeColor=default;align=center;verticalAlign=middle;fontFamily=Helvetica;fontSize=11;fontColor=default;labelBackgroundColor=default;endArrow=none;endFill=0;" edge="1" parent="1" source="QugZ5WU5OdrCgATYYlf3-9" target="QugZ5WU5OdrCgATYYlf3-3">
          <mxGeometry relative="1" as="geometry" />
        </mxCell>
        <mxCell id="QugZ5WU5OdrCgATYYlf3-9" value="habilitações literárias" style="ellipse;whiteSpace=wrap;html=1;align=center;" vertex="1" parent="1">
          <mxGeometry x="20" y="30" width="100" height="40" as="geometry" />
        </mxCell>
        <mxCell id="QugZ5WU5OdrCgATYYlf3-24" style="edgeStyle=none;rounded=0;orthogonalLoop=1;jettySize=auto;html=1;exitX=0.5;exitY=0;exitDx=0;exitDy=0;entryX=0.5;entryY=1;entryDx=0;entryDy=0;strokeColor=default;align=center;verticalAlign=middle;fontFamily=Helvetica;fontSize=11;fontColor=default;labelBackgroundColor=default;endArrow=none;endFill=0;" edge="1" parent="1" source="QugZ5WU5OdrCgATYYlf3-20" target="QugZ5WU5OdrCgATYYlf3-21">
          <mxGeometry relative="1" as="geometry" />
        </mxCell>
        <mxCell id="QugZ5WU5OdrCgATYYlf3-20" value="Aula" style="rounded=1;arcSize=10;whiteSpace=wrap;html=1;align=center;" vertex="1" parent="1">
          <mxGeometry x="550" y="70" width="100" height="40" as="geometry" />
        </mxCell>
        <mxCell id="QugZ5WU5OdrCgATYYlf3-26" style="edgeStyle=none;rounded=0;orthogonalLoop=1;jettySize=auto;html=1;exitX=0.5;exitY=0;exitDx=0;exitDy=0;entryX=0.5;entryY=1;entryDx=0;entryDy=0;strokeColor=default;align=center;verticalAlign=middle;fontFamily=Helvetica;fontSize=11;fontColor=default;labelBackgroundColor=default;endArrow=none;endFill=0;" edge="1" parent="1" source="QugZ5WU5OdrCgATYYlf3-21" target="QugZ5WU5OdrCgATYYlf3-25">
          <mxGeometry relative="1" as="geometry" />
        </mxCell>
        <mxCell id="QugZ5WU5OdrCgATYYlf3-21" value="Modalidade" style="rounded=1;arcSize=10;whiteSpace=wrap;html=1;align=center;" vertex="1" parent="1">
          <mxGeometry x="550" y="-120" width="100" height="40" as="geometry" />
        </mxCell>
        <mxCell id="QugZ5WU5OdrCgATYYlf3-25" value="nome" style="ellipse;whiteSpace=wrap;html=1;align=center;" vertex="1" parent="1">
          <mxGeometry x="550" y="-260" width="100" height="40" as="geometry" />
        </mxCell>
        <mxCell id="QugZ5WU5OdrCgATYYlf3-27" value="1" style="text;html=1;align=center;verticalAlign=middle;resizable=0;points=[];autosize=1;strokeColor=none;fillColor=none;fontFamily=Helvetica;fontSize=11;fontColor=default;labelBackgroundColor=default;" vertex="1" parent="1">
          <mxGeometry x="285" y="65" width="30" height="30" as="geometry" />
        </mxCell>
        <mxCell id="QugZ5WU5OdrCgATYYlf3-28" value="*" style="text;html=1;align=center;verticalAlign=middle;resizable=0;points=[];autosize=1;strokeColor=none;fillColor=none;fontFamily=Helvetica;fontSize=11;fontColor=default;labelBackgroundColor=default;" vertex="1" parent="1">
          <mxGeometry x="523" y="66" width="30" height="30" as="geometry" />
        </mxCell>
        <mxCell id="QugZ5WU5OdrCgATYYlf3-30" style="edgeStyle=none;rounded=0;orthogonalLoop=1;jettySize=auto;html=1;exitX=0.5;exitY=0;exitDx=0;exitDy=0;entryX=0.5;entryY=1;entryDx=0;entryDy=0;strokeColor=default;align=center;verticalAlign=middle;fontFamily=Helvetica;fontSize=11;fontColor=default;labelBackgroundColor=default;endArrow=none;endFill=0;" edge="1" parent="1" source="QugZ5WU5OdrCgATYYlf3-29" target="QugZ5WU5OdrCgATYYlf3-3">
          <mxGeometry relative="1" as="geometry" />
        </mxCell>
        <mxCell id="QugZ5WU5OdrCgATYYlf3-31" style="edgeStyle=none;rounded=0;orthogonalLoop=1;jettySize=auto;html=1;exitX=0.5;exitY=1;exitDx=0;exitDy=0;entryX=0.5;entryY=0;entryDx=0;entryDy=0;strokeColor=default;align=center;verticalAlign=middle;fontFamily=Helvetica;fontSize=11;fontColor=default;labelBackgroundColor=default;endArrow=none;endFill=0;" edge="1" parent="1" source="QugZ5WU5OdrCgATYYlf3-29" target="QugZ5WU5OdrCgATYYlf3-1">
          <mxGeometry relative="1" as="geometry" />
        </mxCell>
        <mxCell id="QugZ5WU5OdrCgATYYlf3-29" value="apoia" style="shape=rhombus;perimeter=rhombusPerimeter;whiteSpace=wrap;html=1;align=center;fontFamily=Helvetica;fontSize=11;fontColor=default;labelBackgroundColor=default;" vertex="1" parent="1">
          <mxGeometry x="190" y="180" width="100" height="40" as="geometry" />
        </mxCell>
        <mxCell id="QugZ5WU5OdrCgATYYlf3-32" value="dá" style="text;html=1;align=center;verticalAlign=middle;resizable=0;points=[];autosize=1;strokeColor=none;fillColor=none;fontFamily=Helvetica;fontSize=11;fontColor=default;labelBackgroundColor=default;" vertex="1" parent="1">
          <mxGeometry x="400" y="65" width="40" height="30" as="geometry" />
        </mxCell>
        <mxCell id="QugZ5WU5OdrCgATYYlf3-34" style="edgeStyle=none;rounded=0;orthogonalLoop=1;jettySize=auto;html=1;exitX=0;exitY=0.5;exitDx=0;exitDy=0;entryX=1;entryY=0.5;entryDx=0;entryDy=0;strokeColor=default;align=center;verticalAlign=middle;fontFamily=Helvetica;fontSize=11;fontColor=default;labelBackgroundColor=default;endArrow=none;endFill=0;" edge="1" parent="1" source="QugZ5WU5OdrCgATYYlf3-33" target="QugZ5WU5OdrCgATYYlf3-29">
          <mxGeometry relative="1" as="geometry" />
        </mxCell>
        <mxCell id="QugZ5WU5OdrCgATYYlf3-33" value="diaSemana" style="ellipse;whiteSpace=wrap;html=1;align=center;" vertex="1" parent="1">
          <mxGeometry x="300" y="200" width="86" height="30" as="geometry" />
        </mxCell>
        <mxCell id="QugZ5WU5OdrCgATYYlf3-36" style="edgeStyle=none;rounded=0;orthogonalLoop=1;jettySize=auto;html=1;exitX=1;exitY=0.5;exitDx=0;exitDy=0;entryX=0;entryY=0;entryDx=0;entryDy=0;strokeColor=default;align=center;verticalAlign=middle;fontFamily=Helvetica;fontSize=11;fontColor=default;labelBackgroundColor=default;endArrow=none;endFill=0;" edge="1" parent="1" source="QugZ5WU5OdrCgATYYlf3-35" target="QugZ5WU5OdrCgATYYlf3-29">
          <mxGeometry relative="1" as="geometry" />
        </mxCell>
        <mxCell id="QugZ5WU5OdrCgATYYlf3-35" value="horaInicio" style="ellipse;whiteSpace=wrap;html=1;align=center;" vertex="1" parent="1">
          <mxGeometry x="70" y="170" width="86" height="30" as="geometry" />
        </mxCell>
        <mxCell id="QugZ5WU5OdrCgATYYlf3-38" style="edgeStyle=none;rounded=0;orthogonalLoop=1;jettySize=auto;html=1;exitX=1;exitY=0.5;exitDx=0;exitDy=0;entryX=0;entryY=1;entryDx=0;entryDy=0;strokeColor=default;align=center;verticalAlign=middle;fontFamily=Helvetica;fontSize=11;fontColor=default;labelBackgroundColor=default;endArrow=none;endFill=0;" edge="1" parent="1" source="QugZ5WU5OdrCgATYYlf3-37" target="QugZ5WU5OdrCgATYYlf3-29">
          <mxGeometry relative="1" as="geometry" />
        </mxCell>
        <mxCell id="QugZ5WU5OdrCgATYYlf3-37" value="horaFim" style="ellipse;whiteSpace=wrap;html=1;align=center;" vertex="1" parent="1">
          <mxGeometry x="70" y="220" width="86" height="30" as="geometry" />
        </mxCell>
        <mxCell id="QugZ5WU5OdrCgATYYlf3-40" value="*" style="text;html=1;align=center;verticalAlign=middle;resizable=0;points=[];autosize=1;strokeColor=none;fillColor=none;fontFamily=Helvetica;fontSize=11;fontColor=default;labelBackgroundColor=default;" vertex="1" parent="1">
          <mxGeometry x="235" y="108" width="30" height="30" as="geometry" />
        </mxCell>
        <mxCell id="QugZ5WU5OdrCgATYYlf3-41" value="*" style="text;html=1;align=center;verticalAlign=middle;resizable=0;points=[];autosize=1;strokeColor=none;fillColor=none;fontFamily=Helvetica;fontSize=11;fontColor=default;labelBackgroundColor=default;" vertex="1" parent="1">
          <mxGeometry x="235" y="260" width="30" height="30" as="geometry" />
        </mxCell>
        <mxCell id="QugZ5WU5OdrCgATYYlf3-42" value="Sala" style="ellipse;whiteSpace=wrap;html=1;align=center;fontFamily=Helvetica;fontSize=11;fontColor=default;labelBackgroundColor=default;" vertex="1" parent="1">
          <mxGeometry x="680" y="-30" width="100" height="40" as="geometry" />
        </mxCell>
        <mxCell id="QugZ5WU5OdrCgATYYlf3-52" style="edgeStyle=none;rounded=0;orthogonalLoop=1;jettySize=auto;html=1;exitX=0;exitY=0.5;exitDx=0;exitDy=0;entryX=1;entryY=0.25;entryDx=0;entryDy=0;strokeColor=default;align=center;verticalAlign=middle;fontFamily=Helvetica;fontSize=11;fontColor=default;labelBackgroundColor=default;endArrow=none;endFill=0;" edge="1" parent="1" source="QugZ5WU5OdrCgATYYlf3-43" target="QugZ5WU5OdrCgATYYlf3-20">
          <mxGeometry relative="1" as="geometry" />
        </mxCell>
        <mxCell id="QugZ5WU5OdrCgATYYlf3-43" value="diaSemana" style="ellipse;whiteSpace=wrap;html=1;align=center;fontFamily=Helvetica;fontSize=11;fontColor=default;labelBackgroundColor=default;" vertex="1" parent="1">
          <mxGeometry x="680" y="25" width="100" height="40" as="geometry" />
        </mxCell>
        <mxCell id="QugZ5WU5OdrCgATYYlf3-49" style="edgeStyle=none;rounded=0;orthogonalLoop=1;jettySize=auto;html=1;exitX=0;exitY=0.5;exitDx=0;exitDy=0;entryX=1;entryY=0.5;entryDx=0;entryDy=0;strokeColor=default;align=center;verticalAlign=middle;fontFamily=Helvetica;fontSize=11;fontColor=default;labelBackgroundColor=default;endArrow=none;endFill=0;" edge="1" parent="1" source="QugZ5WU5OdrCgATYYlf3-44" target="QugZ5WU5OdrCgATYYlf3-20">
          <mxGeometry relative="1" as="geometry" />
        </mxCell>
        <mxCell id="QugZ5WU5OdrCgATYYlf3-44" value="horaInicio" style="ellipse;whiteSpace=wrap;html=1;align=center;fontFamily=Helvetica;fontSize=11;fontColor=default;labelBackgroundColor=default;" vertex="1" parent="1">
          <mxGeometry x="680" y="80" width="100" height="40" as="geometry" />
        </mxCell>
        <mxCell id="QugZ5WU5OdrCgATYYlf3-50" style="edgeStyle=none;rounded=0;orthogonalLoop=1;jettySize=auto;html=1;exitX=0;exitY=0.5;exitDx=0;exitDy=0;entryX=1;entryY=1;entryDx=0;entryDy=0;strokeColor=default;align=center;verticalAlign=middle;fontFamily=Helvetica;fontSize=11;fontColor=default;labelBackgroundColor=default;endArrow=none;endFill=0;" edge="1" parent="1" source="QugZ5WU5OdrCgATYYlf3-45" target="QugZ5WU5OdrCgATYYlf3-20">
          <mxGeometry relative="1" as="geometry" />
        </mxCell>
        <mxCell id="QugZ5WU5OdrCgATYYlf3-45" value="horaFim" style="ellipse;whiteSpace=wrap;html=1;align=center;fontFamily=Helvetica;fontSize=11;fontColor=default;labelBackgroundColor=default;" vertex="1" parent="1">
          <mxGeometry x="680" y="140" width="100" height="40" as="geometry" />
        </mxCell>
        <mxCell id="QugZ5WU5OdrCgATYYlf3-53" style="edgeStyle=none;rounded=0;orthogonalLoop=1;jettySize=auto;html=1;exitX=0;exitY=1;exitDx=0;exitDy=0;entryX=0.94;entryY=-0.05;entryDx=0;entryDy=0;entryPerimeter=0;strokeColor=default;align=center;verticalAlign=middle;fontFamily=Helvetica;fontSize=11;fontColor=default;labelBackgroundColor=default;endArrow=none;endFill=0;" edge="1" parent="1" source="QugZ5WU5OdrCgATYYlf3-42" target="QugZ5WU5OdrCgATYYlf3-20">
          <mxGeometry relative="1" as="geometry" />
        </mxCell>
        <mxCell id="QugZ5WU5OdrCgATYYlf3-85" style="edgeStyle=none;rounded=0;orthogonalLoop=1;jettySize=auto;html=1;exitX=1;exitY=0.5;exitDx=0;exitDy=0;entryX=0;entryY=0;entryDx=0;entryDy=0;strokeColor=default;align=center;verticalAlign=middle;fontFamily=Helvetica;fontSize=11;fontColor=default;labelBackgroundColor=default;endArrow=none;endFill=0;" edge="1" parent="1" source="QugZ5WU5OdrCgATYYlf3-54" target="QugZ5WU5OdrCgATYYlf3-2">
          <mxGeometry relative="1" as="geometry" />
        </mxCell>
        <mxCell id="QugZ5WU5OdrCgATYYlf3-54" value="sexo" style="ellipse;whiteSpace=wrap;html=1;align=center;fontFamily=Helvetica;fontSize=11;fontColor=default;labelBackgroundColor=default;" vertex="1" parent="1">
          <mxGeometry x="40" y="580" width="80" height="30" as="geometry" />
        </mxCell>
        <mxCell id="QugZ5WU5OdrCgATYYlf3-84" style="edgeStyle=none;rounded=0;orthogonalLoop=1;jettySize=auto;html=1;exitX=1;exitY=0.5;exitDx=0;exitDy=0;entryX=0;entryY=0.5;entryDx=0;entryDy=0;strokeColor=default;align=center;verticalAlign=middle;fontFamily=Helvetica;fontSize=11;fontColor=default;labelBackgroundColor=default;endArrow=none;endFill=0;" edge="1" parent="1" source="QugZ5WU5OdrCgATYYlf3-56" target="QugZ5WU5OdrCgATYYlf3-2">
          <mxGeometry relative="1" as="geometry" />
        </mxCell>
        <mxCell id="QugZ5WU5OdrCgATYYlf3-56" value="numSocio" style="ellipse;whiteSpace=wrap;html=1;align=center;fontFamily=Helvetica;fontSize=11;fontColor=default;labelBackgroundColor=default;" vertex="1" parent="1">
          <mxGeometry x="30" y="630" width="80" height="30" as="geometry" />
        </mxCell>
        <mxCell id="QugZ5WU5OdrCgATYYlf3-88" style="edgeStyle=none;rounded=0;orthogonalLoop=1;jettySize=auto;html=1;exitX=0.5;exitY=1;exitDx=0;exitDy=0;entryX=0.5;entryY=0;entryDx=0;entryDy=0;strokeColor=default;align=center;verticalAlign=middle;fontFamily=Helvetica;fontSize=11;fontColor=default;labelBackgroundColor=default;endArrow=none;endFill=0;" edge="1" parent="1" source="QugZ5WU5OdrCgATYYlf3-57" target="QugZ5WU5OdrCgATYYlf3-2">
          <mxGeometry relative="1" as="geometry" />
        </mxCell>
        <mxCell id="QugZ5WU5OdrCgATYYlf3-57" value="nome" style="ellipse;whiteSpace=wrap;html=1;align=center;fontFamily=Helvetica;fontSize=11;fontColor=default;labelBackgroundColor=default;" vertex="1" parent="1">
          <mxGeometry x="150" y="510" width="80" height="30" as="geometry" />
        </mxCell>
        <mxCell id="QugZ5WU5OdrCgATYYlf3-90" style="edgeStyle=none;rounded=0;orthogonalLoop=1;jettySize=auto;html=1;exitX=0.5;exitY=0;exitDx=0;exitDy=0;entryX=0.5;entryY=1;entryDx=0;entryDy=0;strokeColor=default;align=center;verticalAlign=middle;fontFamily=Helvetica;fontSize=11;fontColor=default;labelBackgroundColor=default;endArrow=none;endFill=0;" edge="1" parent="1" source="QugZ5WU5OdrCgATYYlf3-59" target="QugZ5WU5OdrCgATYYlf3-2">
          <mxGeometry relative="1" as="geometry" />
        </mxCell>
        <mxCell id="QugZ5WU5OdrCgATYYlf3-59" value="dataNasc" style="ellipse;whiteSpace=wrap;html=1;align=center;fontFamily=Helvetica;fontSize=11;fontColor=default;labelBackgroundColor=default;" vertex="1" parent="1">
          <mxGeometry x="142" y="750" width="80" height="30" as="geometry" />
        </mxCell>
        <mxCell id="QugZ5WU5OdrCgATYYlf3-83" style="edgeStyle=none;rounded=0;orthogonalLoop=1;jettySize=auto;html=1;exitX=1;exitY=0.5;exitDx=0;exitDy=0;entryX=0;entryY=1;entryDx=0;entryDy=0;strokeColor=default;align=center;verticalAlign=middle;fontFamily=Helvetica;fontSize=11;fontColor=default;labelBackgroundColor=default;endArrow=none;endFill=0;" edge="1" parent="1" source="QugZ5WU5OdrCgATYYlf3-60" target="QugZ5WU5OdrCgATYYlf3-2">
          <mxGeometry relative="1" as="geometry" />
        </mxCell>
        <mxCell id="QugZ5WU5OdrCgATYYlf3-60" value="morada" style="ellipse;whiteSpace=wrap;html=1;align=center;fontFamily=Helvetica;fontSize=11;fontColor=default;labelBackgroundColor=default;" vertex="1" parent="1">
          <mxGeometry x="30" y="680" width="80" height="30" as="geometry" />
        </mxCell>
        <mxCell id="QugZ5WU5OdrCgATYYlf3-82" style="edgeStyle=none;rounded=0;orthogonalLoop=1;jettySize=auto;html=1;exitX=1;exitY=0.5;exitDx=0;exitDy=0;entryX=0.25;entryY=1;entryDx=0;entryDy=0;strokeColor=default;align=center;verticalAlign=middle;fontFamily=Helvetica;fontSize=11;fontColor=default;labelBackgroundColor=default;endArrow=none;endFill=0;" edge="1" parent="1" source="QugZ5WU5OdrCgATYYlf3-61" target="QugZ5WU5OdrCgATYYlf3-2">
          <mxGeometry relative="1" as="geometry" />
        </mxCell>
        <mxCell id="QugZ5WU5OdrCgATYYlf3-61" value="telefone" style="ellipse;whiteSpace=wrap;html=1;align=center;fontFamily=Helvetica;fontSize=11;fontColor=default;labelBackgroundColor=default;" vertex="1" parent="1">
          <mxGeometry x="50" y="730" width="80" height="30" as="geometry" />
        </mxCell>
        <mxCell id="QugZ5WU5OdrCgATYYlf3-87" style="edgeStyle=none;rounded=0;orthogonalLoop=1;jettySize=auto;html=1;exitX=1;exitY=1;exitDx=0;exitDy=0;entryX=0.25;entryY=0;entryDx=0;entryDy=0;strokeColor=default;align=center;verticalAlign=middle;fontFamily=Helvetica;fontSize=11;fontColor=default;labelBackgroundColor=default;endArrow=none;endFill=0;" edge="1" parent="1" source="QugZ5WU5OdrCgATYYlf3-62" target="QugZ5WU5OdrCgATYYlf3-2">
          <mxGeometry relative="1" as="geometry" />
        </mxCell>
        <mxCell id="QugZ5WU5OdrCgATYYlf3-62" value="dataInscr" style="ellipse;whiteSpace=wrap;html=1;align=center;fontFamily=Helvetica;fontSize=11;fontColor=default;labelBackgroundColor=default;" vertex="1" parent="1">
          <mxGeometry x="76" y="540" width="80" height="30" as="geometry" />
        </mxCell>
        <mxCell id="QugZ5WU5OdrCgATYYlf3-63" value="Pagamento" style="rounded=1;arcSize=10;whiteSpace=wrap;html=1;align=center;fontFamily=Helvetica;fontSize=11;fontColor=default;labelBackgroundColor=default;" vertex="1" parent="1">
          <mxGeometry x="510" y="630" width="100" height="40" as="geometry" />
        </mxCell>
        <mxCell id="QugZ5WU5OdrCgATYYlf3-91" style="edgeStyle=none;rounded=0;orthogonalLoop=1;jettySize=auto;html=1;exitX=0.5;exitY=1;exitDx=0;exitDy=0;entryX=0.75;entryY=0;entryDx=0;entryDy=0;strokeColor=default;align=center;verticalAlign=middle;fontFamily=Helvetica;fontSize=11;fontColor=default;labelBackgroundColor=default;endArrow=none;endFill=0;" edge="1" parent="1" source="QugZ5WU5OdrCgATYYlf3-65" target="QugZ5WU5OdrCgATYYlf3-63">
          <mxGeometry relative="1" as="geometry" />
        </mxCell>
        <mxCell id="QugZ5WU5OdrCgATYYlf3-65" value="dataPagamento" style="ellipse;whiteSpace=wrap;html=1;align=center;fontFamily=Helvetica;fontSize=11;fontColor=default;labelBackgroundColor=default;" vertex="1" parent="1">
          <mxGeometry x="565" y="540" width="85" height="40" as="geometry" />
        </mxCell>
        <mxCell id="QugZ5WU5OdrCgATYYlf3-92" style="edgeStyle=none;rounded=0;orthogonalLoop=1;jettySize=auto;html=1;exitX=0.5;exitY=1;exitDx=0;exitDy=0;entryX=1;entryY=0.25;entryDx=0;entryDy=0;strokeColor=default;align=center;verticalAlign=middle;fontFamily=Helvetica;fontSize=11;fontColor=default;labelBackgroundColor=default;endArrow=none;endFill=0;" edge="1" parent="1" source="QugZ5WU5OdrCgATYYlf3-66" target="QugZ5WU5OdrCgATYYlf3-63">
          <mxGeometry relative="1" as="geometry" />
        </mxCell>
        <mxCell id="QugZ5WU5OdrCgATYYlf3-66" value="valor" style="ellipse;whiteSpace=wrap;html=1;align=center;fontFamily=Helvetica;fontSize=11;fontColor=default;labelBackgroundColor=default;" vertex="1" parent="1">
          <mxGeometry x="670" y="555" width="80" height="30" as="geometry" />
        </mxCell>
        <mxCell id="QugZ5WU5OdrCgATYYlf3-93" style="edgeStyle=none;rounded=0;orthogonalLoop=1;jettySize=auto;html=1;exitX=0;exitY=0.5;exitDx=0;exitDy=0;entryX=1;entryY=0.5;entryDx=0;entryDy=0;strokeColor=default;align=center;verticalAlign=middle;fontFamily=Helvetica;fontSize=11;fontColor=default;labelBackgroundColor=default;endArrow=none;endFill=0;" edge="1" parent="1" source="QugZ5WU5OdrCgATYYlf3-68" target="QugZ5WU5OdrCgATYYlf3-63">
          <mxGeometry relative="1" as="geometry" />
        </mxCell>
        <mxCell id="QugZ5WU5OdrCgATYYlf3-68" value="tipoFrequência" style="ellipse;whiteSpace=wrap;html=1;align=center;fontFamily=Helvetica;fontSize=11;fontColor=default;labelBackgroundColor=default;" vertex="1" parent="1">
          <mxGeometry x="660" y="640" width="80" height="30" as="geometry" />
        </mxCell>
        <mxCell id="QugZ5WU5OdrCgATYYlf3-69" value="*" style="text;html=1;align=center;verticalAlign=middle;resizable=0;points=[];autosize=1;strokeColor=none;fillColor=none;fontFamily=Helvetica;fontSize=11;fontColor=default;labelBackgroundColor=default;" vertex="1" parent="1">
          <mxGeometry x="483" y="625" width="30" height="30" as="geometry" />
        </mxCell>
        <mxCell id="QugZ5WU5OdrCgATYYlf3-70" value="1" style="text;html=1;align=center;verticalAlign=middle;resizable=0;points=[];autosize=1;strokeColor=none;fillColor=none;fontFamily=Helvetica;fontSize=11;fontColor=default;labelBackgroundColor=default;" vertex="1" parent="1">
          <mxGeometry x="245" y="625" width="30" height="30" as="geometry" />
        </mxCell>
        <mxCell id="QugZ5WU5OdrCgATYYlf3-73" style="edgeStyle=none;rounded=0;orthogonalLoop=1;jettySize=auto;html=1;exitX=0.5;exitY=0;exitDx=0;exitDy=0;entryX=0.5;entryY=1;entryDx=0;entryDy=0;strokeColor=default;align=center;verticalAlign=middle;fontFamily=Helvetica;fontSize=11;fontColor=default;labelBackgroundColor=default;endArrow=none;endFill=0;" edge="1" parent="1" source="QugZ5WU5OdrCgATYYlf3-72" target="QugZ5WU5OdrCgATYYlf3-63">
          <mxGeometry relative="1" as="geometry" />
        </mxCell>
        <mxCell id="QugZ5WU5OdrCgATYYlf3-72" value="Mês" style="rounded=1;arcSize=10;whiteSpace=wrap;html=1;align=center;fontFamily=Helvetica;fontSize=11;fontColor=default;labelBackgroundColor=default;" vertex="1" parent="1">
          <mxGeometry x="510" y="780" width="100" height="40" as="geometry" />
        </mxCell>
        <mxCell id="QugZ5WU5OdrCgATYYlf3-74" value="1" style="text;html=1;align=center;verticalAlign=middle;resizable=0;points=[];autosize=1;strokeColor=none;fillColor=none;fontFamily=Helvetica;fontSize=11;fontColor=default;labelBackgroundColor=default;" vertex="1" parent="1">
          <mxGeometry x="553" y="664" width="30" height="30" as="geometry" />
        </mxCell>
        <mxCell id="QugZ5WU5OdrCgATYYlf3-75" value="*" style="text;html=1;align=center;verticalAlign=middle;resizable=0;points=[];autosize=1;strokeColor=none;fillColor=none;fontFamily=Helvetica;fontSize=11;fontColor=default;labelBackgroundColor=default;" vertex="1" parent="1">
          <mxGeometry x="554" y="753" width="30" height="30" as="geometry" />
        </mxCell>
        <mxCell id="QugZ5WU5OdrCgATYYlf3-79" style="edgeStyle=none;rounded=0;orthogonalLoop=1;jettySize=auto;html=1;exitX=1;exitY=0.5;exitDx=0;exitDy=0;entryX=0;entryY=0.5;entryDx=0;entryDy=0;strokeColor=default;align=center;verticalAlign=middle;fontFamily=Helvetica;fontSize=11;fontColor=default;labelBackgroundColor=default;endArrow=none;endFill=0;" edge="1" parent="1" source="QugZ5WU5OdrCgATYYlf3-76" target="QugZ5WU5OdrCgATYYlf3-72">
          <mxGeometry relative="1" as="geometry" />
        </mxCell>
        <mxCell id="QugZ5WU5OdrCgATYYlf3-76" value="mês" style="ellipse;whiteSpace=wrap;html=1;align=center;fontFamily=Helvetica;fontSize=11;fontColor=default;labelBackgroundColor=default;" vertex="1" parent="1">
          <mxGeometry x="400" y="785" width="80" height="30" as="geometry" />
        </mxCell>
        <mxCell id="QugZ5WU5OdrCgATYYlf3-78" style="edgeStyle=none;rounded=0;orthogonalLoop=1;jettySize=auto;html=1;exitX=0;exitY=0.5;exitDx=0;exitDy=0;entryX=1;entryY=0.5;entryDx=0;entryDy=0;strokeColor=default;align=center;verticalAlign=middle;fontFamily=Helvetica;fontSize=11;fontColor=default;labelBackgroundColor=default;endArrow=none;endFill=0;" edge="1" parent="1" source="QugZ5WU5OdrCgATYYlf3-77" target="QugZ5WU5OdrCgATYYlf3-72">
          <mxGeometry relative="1" as="geometry" />
        </mxCell>
        <mxCell id="QugZ5WU5OdrCgATYYlf3-77" value="ano" style="ellipse;whiteSpace=wrap;html=1;align=center;fontFamily=Helvetica;fontSize=11;fontColor=default;labelBackgroundColor=default;" vertex="1" parent="1">
          <mxGeometry x="650" y="785" width="80" height="30" as="geometry" />
        </mxCell>
        <mxCell id="QugZ5WU5OdrCgATYYlf3-80" value="*" style="text;html=1;align=center;verticalAlign=middle;resizable=0;points=[];autosize=1;strokeColor=none;fillColor=none;fontFamily=Helvetica;fontSize=11;fontColor=default;labelBackgroundColor=default;" vertex="1" parent="1">
          <mxGeometry x="520" y="-120" width="30" height="30" as="geometry" />
        </mxCell>
        <mxCell id="QugZ5WU5OdrCgATYYlf3-81" value="*" style="text;html=1;align=center;verticalAlign=middle;resizable=0;points=[];autosize=1;strokeColor=none;fillColor=none;fontFamily=Helvetica;fontSize=11;fontColor=default;labelBackgroundColor=default;" vertex="1" parent="1">
          <mxGeometry x="222" y="41" width="30" height="30" as="geometry" />
        </mxCell>
      </root>
    </mxGraphModel>
  </diagram>
</mxfile>
